<svg width="120" height="138" viewBox="0 0 120 138" fill="none" xmlns="http://www.w3.org/2000/svg">
<path d="M45.9988 62.3606C46.2836 62.3607 46.562 62.2765 46.7989 62.1186C47.0358 61.9606 47.2207 61.7361 47.3301 61.4732C47.9236 58.8576 49.3188 56.4926 51.3212 54.7082C51.6541 54.4864 51.765 54.0428 51.765 53.599C51.7509 53.4174 51.693 53.2419 51.5965 53.0874C51.4999 52.9329 51.3674 52.8041 51.2103 52.7119L19.9361 34.4124L39.8992 22.7678C40.2912 22.5417 40.6192 22.2193 40.852 21.8312C41.0848 21.4431 41.2149 21.0021 41.2299 20.5497C41.2383 20.0924 41.118 19.642 40.8827 19.2498C40.6474 18.8576 40.3066 18.5394 39.8992 18.3316L33.9104 14.8929C33.5208 14.6747 33.0816 14.5602 32.635 14.5602C32.1885 14.5602 31.7493 14.6747 31.3596 14.8929L4.52035 30.4195C4.1283 30.6456 3.80036 30.968 3.56748 31.3561C3.3346 31.7442 3.20447 32.1852 3.18937 32.6376V63.4698C3.18102 63.9271 3.30138 64.3776 3.53671 64.7698C3.77205 65.162 4.1129 65.4801 4.52035 65.6879L10.5091 69.1259C10.9101 69.3658 11.3731 69.4816 11.8398 69.4586C12.4954 69.4764 13.1321 69.2376 13.6144 68.7932C14.0936 68.2798 14.3697 67.6097 14.3912 66.9078V44.0625L45.4444 62.25C45.6178 62.3303 45.8079 62.3682 45.9988 62.3606ZM86.5904 101.178C86.1285 101.195 85.6753 101.309 85.2595 101.51L65.2966 113.045V77.1112C65.2966 76.3344 64.5198 75.5577 63.6329 75.8912C61.1056 76.6483 58.4173 76.6867 55.8694 76.002C55.6779 75.9466 55.4763 75.9359 55.2801 75.9707C55.0838 76.0055 54.8982 76.0849 54.7375 76.2028C54.5768 76.3207 54.4453 76.4739 54.3531 76.6506C54.261 76.8274 54.2106 77.0229 54.206 77.2221V112.934L34.2429 101.399C33.8418 101.16 33.3787 101.044 32.9119 101.067C32.2377 101.074 31.5932 101.345 31.1165 101.822C30.6397 102.299 30.3686 102.943 30.3611 103.618V110.605C30.3527 111.062 30.473 111.512 30.7083 111.905C30.9437 112.297 31.2846 112.615 31.6921 112.823L58.5313 128.239C58.9323 128.479 59.3954 128.594 59.862 128.571C60.3257 128.567 60.7816 128.453 61.193 128.239L88.0323 112.823C88.4244 112.597 88.7523 112.274 88.9851 111.886C89.2179 111.498 89.348 111.057 89.363 110.605V103.618C89.1426 102.398 87.9212 101.178 86.5904 101.178ZM59.9818 70.1791C61.2003 70.1791 62.3914 69.8178 63.4045 69.1408C64.4176 68.4639 65.2073 67.5017 65.6735 66.376C66.1398 65.2503 66.2618 64.0116 66.0241 62.8165C65.7864 61.6214 65.1997 60.5237 64.3381 59.6621C63.4765 58.8005 62.3787 58.2138 61.1837 57.976C59.9886 57.7383 58.7499 57.8603 57.6242 58.3266C56.4985 58.7929 55.5363 59.5826 54.8593 60.5957C54.1824 61.6088 53.8211 62.7999 53.8211 64.0184C53.8209 64.8275 53.9802 65.6287 54.2897 66.3763C54.5993 67.1239 55.053 67.8032 55.6251 68.3754C56.1972 68.9475 56.8764 69.4014 57.6239 69.7111C58.3715 70.0208 59.1727 70.1802 59.9818 70.1802V70.1791Z" fill="#44EE88"/>
<path d="M80.0317 19.8546C79.0185 20.5315 77.8274 20.8929 76.609 20.8929C74.975 20.8929 73.408 20.2438 72.2527 19.0884C71.0973 17.9331 70.4482 16.3661 70.4482 14.7321C70.4482 13.5137 70.8096 12.3226 71.4865 11.3094C72.1635 10.2963 73.1256 9.50667 74.2514 9.04039C75.3771 8.5741 76.6158 8.45209 77.8109 8.68981C79.0059 8.92752 80.1037 9.51427 80.9652 10.3759C81.8268 11.2375 82.4136 12.3352 82.6513 13.5302C82.889 14.7253 82.767 15.964 82.3007 17.0897C81.8344 18.2155 81.0448 19.1776 80.0317 19.8546Z" fill="#F2F2F2"/>
<path d="M90.2292 19.2295C91.2423 18.5526 92.4334 18.1912 93.6519 18.1912C95.2858 18.1912 96.8528 18.8403 98.0082 19.9957C99.1636 21.151 99.8126 22.718 99.8126 24.352C99.8126 25.5704 99.4513 26.7615 98.7744 27.7747C98.0974 28.7878 97.1352 29.5774 96.0095 30.0437C94.8838 30.51 93.6451 30.632 92.45 30.3943C91.2549 30.1566 90.1572 29.5698 89.2956 28.7082C88.434 27.8467 87.8473 26.7489 87.6096 25.5539C87.3719 24.3588 87.4939 23.1201 87.9602 21.9944C88.4264 20.8686 89.2161 19.9065 90.2292 19.2295Z" fill="#F2F2F2"/>
<path d="M113.998 39.5689C112.985 40.2458 111.794 40.6071 110.576 40.6071C108.942 40.6071 107.375 39.9581 106.219 38.8027C105.064 37.6474 104.415 36.0804 104.415 34.4464C104.415 33.228 104.776 32.0368 105.453 31.0237C106.13 30.0106 107.092 29.221 108.218 28.7547C109.344 28.2884 110.582 28.1664 111.778 28.4041C112.973 28.6418 114.07 29.2286 114.932 30.0901C115.794 30.9517 116.38 32.0495 116.618 33.2445C116.856 34.4396 116.734 35.6783 116.267 36.804C115.801 37.9298 115.011 38.8919 113.998 39.5689Z" fill="#F2F2F2"/>
<path d="M90.2292 39.1811C91.2423 38.5042 92.4334 38.1429 93.6519 38.1429C95.2858 38.1429 96.8528 38.7919 98.0082 39.9473C99.1636 41.1026 99.8126 42.6696 99.8126 44.3036C99.8126 45.522 99.4513 46.7132 98.7744 47.7263C98.0974 48.7394 97.1352 49.529 96.0095 49.9953C94.8838 50.4616 93.6451 50.5836 92.45 50.3459C91.2549 50.1082 90.1572 49.5214 89.2956 48.6599C88.434 47.7983 87.8473 46.7005 87.6096 45.5055C87.3719 44.3104 87.4939 43.0717 87.9602 41.946C88.4264 40.8202 89.2161 39.8581 90.2292 39.1811Z" fill="#F2F2F2"/>
<path d="M80.0317 59.4021C79.0185 60.079 77.8274 60.4404 76.609 60.4404V60.4414C75.7998 60.4414 74.9986 60.282 74.2511 59.9724C73.5036 59.6627 72.8244 59.2088 72.2523 58.6366C71.6802 58.0644 71.2264 57.3851 70.9169 56.6376C70.6074 55.89 70.4481 55.0888 70.4482 54.2796C70.4482 53.0612 70.8096 51.8701 71.4865 50.8569C72.1635 49.8438 73.1256 49.0542 74.2514 48.5879C75.3771 48.1216 76.6158 47.9996 77.8109 48.2373C79.0059 48.475 80.1037 49.0618 80.9652 49.9234C81.8268 50.7849 82.4136 51.8827 82.6513 53.0777C82.889 54.2728 82.767 55.5115 82.3007 56.6372C81.8344 57.763 81.0448 58.7251 80.0317 59.4021Z" fill="#F2F2F2"/>
<path d="M107.153 49.1572C108.166 48.4802 109.357 48.1189 110.576 48.1189V48.12C112.209 48.12 113.776 48.7689 114.932 49.9241C116.087 51.0792 116.736 52.6459 116.736 54.2796C116.736 55.4981 116.375 56.6892 115.698 57.7024C115.021 58.7155 114.059 59.5051 112.933 59.9714C111.808 60.4377 110.569 60.5597 109.374 60.322C108.179 60.0843 107.081 59.4975 106.219 58.6359C105.358 57.7743 104.771 56.6766 104.533 55.4815C104.296 54.2865 104.418 53.0478 104.884 51.922C105.35 50.7963 106.14 49.8341 107.153 49.1572Z" fill="#F2F2F2"/>
<path d="M107.153 68.5158C108.166 67.8388 109.357 67.4775 110.576 67.4775V67.4786C112.209 67.4786 113.776 68.1275 114.932 69.2826C116.087 70.4377 116.736 72.0045 116.736 73.6382C116.736 74.8567 116.375 76.0478 115.698 77.0609C115.021 78.074 114.059 78.8637 112.933 79.33C111.808 79.7963 110.569 79.9183 109.374 79.6805C108.179 79.4428 107.081 78.8561 106.219 77.9945C105.358 77.1329 104.771 76.0352 104.533 74.8401C104.296 73.6451 104.418 72.4063 104.884 71.2806C105.35 70.1549 106.14 69.1927 107.153 68.5158Z" fill="#F2F2F2"/>
<path d="M59.982 70.1791C61.2005 70.1791 62.3916 69.8178 63.4047 69.1408C64.4178 68.4639 65.2075 67.5017 65.6738 66.376C66.1401 65.2503 66.2621 64.0116 66.0243 62.8165C65.7866 61.6214 65.1999 60.5237 64.3383 59.6621C63.4767 58.8005 62.379 58.2138 61.1839 57.976C59.9888 57.7383 58.7501 57.8603 57.6244 58.3266C56.4987 58.7929 55.5365 59.5826 54.8596 60.5957C54.1826 61.6088 53.8213 62.7999 53.8213 64.0184C53.8211 64.8275 53.9804 65.6287 54.2899 66.3763C54.5995 67.1239 55.0533 67.8032 55.6253 68.3754C56.1974 68.9475 56.8766 69.4014 57.6242 69.7111C58.3717 70.0208 59.1729 70.1802 59.982 70.1802V70.1791Z" fill="#F2F2F2"/>
</svg>
